<?xml version="1.0" standalone="no"?>
<!DOCTYPE svg PUBLIC "-//W3C//DTD SVG 20010904//EN"
 "http://www.w3.org/TR/2001/REC-SVG-20010904/DTD/svg10.dtd">
<svg version="1.0" xmlns="http://www.w3.org/2000/svg"
 width="700.000000pt" height="386.000000pt" viewBox="0 0 700.000000 386.000000"
 preserveAspectRatio="xMidYMid meet">

<g transform="translate(0.000000,386.000000) scale(0.100000,-0.100000)"
fill="#000000" stroke="none">
<path d="M5149 3679 c-55 -8 -118 -22 -234 -54 -76 -20 -278 -119 -372 -182
-457 -306 -766 -875 -858 -1581 -34 -259 -29 -629 11 -805 69 -300 246 -550
499 -703 75 -45 187 -89 310 -120 105 -28 120 -29 335 -28 219 0 227 1 310 28
369 122 671 396 813 736 148 355 142 728 -15 1060 -104 219 -299 385 -523 446
-103 28 -290 27 -392 -2 -39 -11 -25 9 50 69 135 108 305 175 483 192 66 6 72
9 90 38 65 108 93 266 73 411 -27 198 -111 363 -237 462 l-57 44 -115 -1 c-63
-1 -140 -5 -171 -10z m244 -236 c67 -65 118 -140 143 -210 24 -68 24 -184 0
-250 -19 -51 -21 -52 -65 -58 -217 -28 -369 -105 -541 -275 -138 -136 -250
-314 -300 -473 -19 -60 -27 -147 -14 -147 6 0 90 64 104 80 33 35 201 124 292
154 207 70 390 52 543 -53 375 -256 430 -961 108 -1384 -149 -196 -328 -328
-548 -403 -69 -23 -101 -28 -226 -32 -366 -11 -639 101 -830 341 -61 77 -76
103 -118 202 -54 129 -70 207 -82 410 -10 162 -10 217 5 375 9 102 23 219 31
260 40 204 49 242 81 343 120 383 293 667 538 886 36 31 180 131 190 131 3 0
27 13 53 28 66 39 194 86 283 106 97 20 119 23 215 24 l80 2 58 -57z"/>
<path d="M5005 1621 c-57 -10 -99 -35 -151 -89 -116 -119 -149 -307 -70 -399
22 -26 30 -28 93 -28 53 0 79 6 116 25 96 48 188 182 203 293 8 57 -12 160
-35 181 -20 18 -102 27 -156 17z"/>
<path d="M2315 3650 c-232 -48 -484 -168 -657 -311 -243 -203 -424 -510 -436
-739 -5 -105 12 -179 69 -296 126 -259 335 -405 512 -359 32 8 70 22 85 32 55
34 115 100 147 163 60 119 208 287 309 351 33 21 63 36 68 33 8 -5 -27 -88
-60 -144 -12 -19 -26 -44 -31 -55 -9 -22 -140 -217 -151 -225 -3 -3 -17 -21
-30 -40 -13 -19 -27 -37 -30 -40 -3 -3 -27 -32 -54 -65 -76 -95 -298 -335
-310 -335 -2 0 -17 -12 -33 -27 -80 -77 -149 -136 -253 -218 -106 -84 -156
-129 -188 -169 -30 -38 -93 -167 -119 -246 -26 -78 -28 -97 -27 -235 0 -92 7
-183 17 -237 15 -80 87 -286 110 -316 9 -12 184 -13 1031 -10 890 3 1021 5
1035 18 33 34 113 222 143 341 28 110 32 140 32 264 0 107 -5 164 -22 240 -26
123 -81 317 -92 329 -5 5 -104 4 -232 -1 -123 -6 -225 -9 -227 -7 -3 3 72 98
89 114 3 3 17 21 30 40 13 19 27 37 30 40 3 3 17 21 30 40 14 19 32 43 40 52
19 21 160 283 190 353 69 159 133 376 171 578 16 86 0 312 -31 432 -82 313
-298 546 -586 630 -167 49 -404 59 -569 25z m455 -196 c192 -49 353 -175 454
-355 65 -117 106 -356 87 -501 -34 -251 -171 -607 -330 -853 -14 -22 -28 -42
-31 -45 -3 -3 -17 -21 -30 -40 -13 -19 -27 -37 -30 -40 -3 -3 -28 -32 -54 -65
-54 -67 -154 -175 -163 -175 -3 0 -13 -8 -22 -18 -9 -9 -50 -47 -91 -82 -41
-36 -77 -67 -80 -70 -3 -3 -26 -21 -52 -40 -26 -19 -48 -38 -48 -42 0 -3 42
-4 93 -1 613 34 769 38 777 22 15 -27 49 -210 56 -299 11 -140 -25 -347 -77
-441 l-24 -44 -190 -6 c-105 -3 -510 -7 -901 -8 -565 -1 -713 1 -721 11 -14
18 -49 139 -63 218 -7 36 -13 117 -13 180 -1 99 3 125 24 185 33 91 68 145
121 187 98 78 195 155 223 178 62 51 348 338 413 415 37 44 71 85 77 91 19 22
40 49 88 114 26 36 56 74 65 85 33 41 154 239 197 325 57 114 95 226 95 283 0
80 -75 128 -174 112 -170 -28 -467 -282 -582 -498 -57 -108 -114 -130 -212
-81 -92 46 -181 167 -226 308 -21 66 -20 131 4 217 94 340 435 651 830 756
168 44 374 51 510 17z"/>
</g>
</svg>
